<svg width="48" height="49" viewBox="0 0 48 49" fill="none" xmlns="http://www.w3.org/2000/svg">
<circle cx="24" cy="24.5" r="24" fill="#6E4AACb8" />
<path d="M20.768 31.5C20.176 31.5 19.72 31.348 19.4 31.044C19.096 30.724 18.944 30.276 18.944 29.7C18.944 29.124 19.096 28.684 19.4 28.38C19.72 28.076 20.176 27.924 20.768 27.924H22.928V18.108H24.944L21.464 20.244C21.048 20.5 20.656 20.604 20.288 20.556C19.92 20.492 19.608 20.332 19.352 20.076C19.096 19.82 18.928 19.508 18.848 19.14C18.768 18.772 18.8 18.404 18.944 18.036C19.088 17.668 19.376 17.356 19.808 17.1L23.12 15.036C23.472 14.812 23.832 14.644 24.2 14.532C24.584 14.42 24.984 14.364 25.4 14.364C26.008 14.364 26.48 14.524 26.816 14.844C27.152 15.148 27.32 15.596 27.32 16.188V27.924H29.24C29.832 27.924 30.28 28.076 30.584 28.38C30.904 28.684 31.064 29.124 31.064 29.7C31.064 30.276 30.904 30.724 30.584 31.044C30.28 31.348 29.832 31.5 29.24 31.5H20.768Z" fill="white"/>
</svg>
