<svg width="48" height="49" viewBox="0 0 48 49" fill="none" xmlns="http://www.w3.org/2000/svg">
<circle cx="24" cy="24.5" r="24" fill="#6E4AACb8" />
<path d="M20.456 32.5C19.752 32.5 19.24 32.34 18.92 32.02C18.616 31.684 18.464 31.196 18.464 30.556C18.464 30.108 18.56 29.708 18.752 29.356C18.96 29.004 19.224 28.66 19.544 28.324L23.744 23.932C24.368 23.26 24.808 22.684 25.064 22.204C25.336 21.724 25.472 21.244 25.472 20.764C25.472 20.156 25.272 19.7 24.872 19.396C24.472 19.092 23.896 18.94 23.144 18.94C22.76 18.94 22.352 18.996 21.92 19.108C21.488 19.204 21.024 19.38 20.528 19.636C20.096 19.828 19.704 19.884 19.352 19.804C19.016 19.724 18.728 19.548 18.488 19.276C18.264 19.004 18.12 18.692 18.056 18.34C18.008 17.988 18.064 17.644 18.224 17.308C18.384 16.956 18.672 16.668 19.088 16.444C19.824 16.044 20.584 15.756 21.368 15.58C22.168 15.404 22.968 15.316 23.768 15.316C25.08 15.316 26.176 15.508 27.056 15.892C27.952 16.276 28.632 16.836 29.096 17.572C29.56 18.292 29.792 19.188 29.792 20.26C29.792 20.932 29.688 21.588 29.48 22.228C29.288 22.868 28.968 23.508 28.52 24.148C28.088 24.788 27.504 25.468 26.768 26.188L22.88 30.028V28.924H28.808C29.4 28.924 29.848 29.076 30.152 29.38C30.472 29.684 30.632 30.124 30.632 30.7C30.632 31.276 30.472 31.724 30.152 32.044C29.848 32.348 29.4 32.5 28.808 32.5H20.456Z" fill="white"/>
</svg>
