<svg width="48" height="49" viewBox="0 0 48 49" fill="none" xmlns="http://www.w3.org/2000/svg">
<circle cx="24" cy="24.5" r="24" fill="#6E4AACb8" />
<path d="M23.696 31.764C22.88 31.764 22.064 31.684 21.248 31.524C20.432 31.364 19.728 31.14 19.136 30.852C18.624 30.612 18.264 30.316 18.056 29.964C17.864 29.612 17.784 29.252 17.816 28.884C17.848 28.516 17.976 28.188 18.2 27.9C18.44 27.612 18.744 27.42 19.112 27.324C19.496 27.212 19.928 27.26 20.408 27.468C21 27.724 21.544 27.9 22.04 27.996C22.536 28.092 23.032 28.14 23.528 28.14C24.104 28.14 24.584 28.076 24.968 27.948C25.352 27.82 25.64 27.628 25.832 27.372C26.024 27.1 26.12 26.764 26.12 26.364C26.12 25.804 25.92 25.396 25.52 25.14C25.136 24.868 24.568 24.732 23.816 24.732H22.52C21.912 24.732 21.448 24.58 21.128 24.276C20.808 23.972 20.648 23.54 20.648 22.98C20.648 22.42 20.808 21.988 21.128 21.684C21.448 21.38 21.912 21.228 22.52 21.228H23.384C23.848 21.228 24.24 21.164 24.56 21.036C24.896 20.908 25.152 20.724 25.328 20.484C25.504 20.228 25.592 19.916 25.592 19.548C25.592 19.02 25.4 18.62 25.016 18.348C24.648 18.076 24.096 17.94 23.36 17.94C22.912 17.94 22.456 17.988 21.992 18.084C21.528 18.18 21.032 18.348 20.504 18.588C20.088 18.764 19.704 18.804 19.352 18.708C19.016 18.612 18.736 18.428 18.512 18.156C18.304 17.868 18.176 17.556 18.128 17.22C18.08 16.868 18.136 16.524 18.296 16.188C18.456 15.852 18.76 15.572 19.208 15.348C19.88 15.012 20.608 14.756 21.392 14.58C22.192 14.404 22.992 14.316 23.792 14.316C25.056 14.316 26.136 14.5 27.032 14.868C27.928 15.236 28.608 15.772 29.072 16.476C29.552 17.164 29.792 17.996 29.792 18.972C29.792 19.612 29.672 20.204 29.432 20.748C29.192 21.292 28.84 21.748 28.376 22.116C27.912 22.468 27.368 22.724 26.744 22.884V22.548C27.864 22.724 28.736 23.196 29.36 23.964C30 24.716 30.32 25.66 30.32 26.796C30.32 27.82 30.056 28.708 29.528 29.46C29 30.212 28.24 30.788 27.248 31.188C26.256 31.572 25.072 31.764 23.696 31.764Z" fill="white"/>
</svg>
