<svg width="179" height="179" viewBox="0 0 179 179" fill="none" xmlns="http://www.w3.org/2000/svg">
<rect x="0.5" y="0.5" width="178" height="178" stroke="black" fill="white"/>
<path d="M70.998 124.189C71.7272 122.64 72.5703 120.977 73.5273 119.199C74.4844 117.376 75.5098 115.531 76.6035 113.662C77.6973 111.748 78.8594 109.857 80.0898 107.988C81.3203 106.12 82.5964 104.365 83.918 102.725C85.2396 101.13 86.5612 99.9902 87.8828 99.3066C89.25 98.5775 90.526 98.2129 91.7109 98.2129C92.8958 98.2129 93.9212 98.4635 94.7871 98.9648C95.6986 99.4206 96.4277 100.059 96.9746 100.879C97.5671 101.699 98 102.656 98.2734 103.75C98.5924 104.844 98.752 106.029 98.752 107.305C98.752 108.353 98.638 109.766 98.4102 111.543C98.2279 113.275 98.1367 115.098 98.1367 117.012C98.1367 118.105 98.1823 119.199 98.2734 120.293C98.4102 121.341 98.6152 122.298 98.8887 123.164C99.2077 123.984 99.6634 124.668 100.256 125.215C100.848 125.716 101.623 125.967 102.58 125.967C103.674 125.967 104.768 125.671 105.861 125.078C106.955 124.44 108.026 123.62 109.074 122.617C110.122 121.569 111.125 120.43 112.082 119.199C113.039 117.923 113.905 116.67 114.68 115.439C115.454 114.163 116.138 112.956 116.73 111.816C117.323 110.632 117.801 109.652 118.166 108.877C118.622 107.829 119.419 107.305 120.559 107.305C121.333 107.305 121.949 107.578 122.404 108.125C122.86 108.672 123.088 109.264 123.088 109.902C123.088 110.267 123.02 110.609 122.883 110.928C122.701 111.292 122.336 112.044 121.789 113.184C121.288 114.323 120.581 115.645 119.67 117.148C118.804 118.652 117.779 120.225 116.594 121.865C115.409 123.506 114.087 125.033 112.629 126.445C111.216 127.812 109.667 128.952 107.98 129.863C106.34 130.729 104.608 131.162 102.785 131.162C100.689 131.162 99.0026 130.729 97.7266 129.863C96.4505 128.952 95.4479 127.812 94.7188 126.445C94.0352 125.078 93.5566 123.551 93.2832 121.865C93.0553 120.179 92.9414 118.538 92.9414 116.943C92.9414 116.123 92.9642 115.257 93.0098 114.346C93.1009 113.389 93.1921 112.454 93.2832 111.543C93.3743 110.632 93.4427 109.788 93.4883 109.014C93.5794 108.193 93.625 107.51 93.625 106.963C93.625 105.55 93.4199 104.593 93.0098 104.092C92.6452 103.59 92.2122 103.34 91.7109 103.34C90.9818 103.34 90.1387 103.773 89.1816 104.639C88.2702 105.459 87.2904 106.553 86.2422 107.92C85.2396 109.287 84.2142 110.837 83.166 112.568C82.1634 114.255 81.1836 115.941 80.2266 117.627C79.2695 119.313 78.4036 120.931 77.6289 122.48C76.8542 123.984 76.2161 125.238 75.7148 126.24C74.7578 128.154 73.778 129.43 72.7754 130.068C71.8184 130.752 70.9525 131.094 70.1777 131.094C68.765 131.094 67.6712 130.547 66.8965 129.453C66.1673 128.314 65.8027 126.947 65.8027 125.352V121.045C65.8027 112.432 65.8027 104.229 65.8027 96.4355C65.8483 88.597 65.9622 81.3281 66.1445 74.6289C66.3724 67.8841 66.7142 61.8001 67.1699 56.377C67.6712 50.9082 68.4004 46.2598 69.3574 42.4316C70.3145 38.5579 71.5221 35.5729 72.9805 33.4766C74.4844 31.3802 76.3529 30.332 78.5859 30.332C80.5 30.332 82.1178 30.8561 83.4395 31.9043C84.7611 32.9525 85.832 34.388 86.6523 36.2109C87.4727 37.9883 88.0651 40.0846 88.4297 42.5C88.7943 44.8698 88.9766 47.3763 88.9766 50.0195C88.9766 55.3971 88.4753 60.6836 87.4727 65.8789C86.5156 71.0286 85.2168 76.0645 83.5762 80.9863C81.9355 85.9082 80.0215 90.7161 77.834 95.4102C75.6465 100.059 73.3451 104.593 70.9297 109.014C70.9297 109.834 70.9297 110.814 70.9297 111.953C70.9297 113.092 70.9297 114.232 70.9297 115.371C70.9297 116.51 70.9297 117.581 70.9297 118.584C70.9297 119.587 70.9297 120.384 70.9297 120.977L70.998 124.189ZM70.998 98.9648C72.9121 94.7721 74.6439 90.6934 76.1934 86.7285C77.7884 82.7181 79.1328 78.7305 80.2266 74.7656C81.3659 70.8008 82.2546 66.7904 82.8926 62.7344C83.5306 58.6328 83.8496 54.3717 83.8496 49.9512C83.8496 49.222 83.804 48.0599 83.7129 46.4648C83.6673 44.8698 83.4622 43.252 83.0977 41.6113C82.7786 39.9707 82.2546 38.5352 81.5254 37.3047C80.8418 36.0742 79.862 35.459 78.5859 35.459C77.5833 35.459 76.7174 36.1426 75.9883 37.5098C75.2591 38.8314 74.6211 40.6543 74.0742 42.9785C73.5273 45.2572 73.0716 47.9232 72.707 50.9766C72.3424 54.0299 72.0462 57.2656 71.8184 60.6836C71.5905 64.1016 71.4082 67.6107 71.2715 71.2109C71.1803 74.8112 71.112 78.3203 71.0664 81.7383C71.0208 85.1107 70.998 88.278 70.998 91.2402C70.998 94.2025 70.998 96.7773 70.998 98.9648Z" fill="black"/>
</svg>
