<svg width="390" height="78" viewBox="0 0 390 78" fill="none" xmlns="http://www.w3.org/2000/svg">
<path fill-rule="evenodd" clip-rule="evenodd" d="M0 19.6959L9.425 21.3372C18.525 22.9786 37.05 26.2612 55.575 34.4679C74.425 42.6745 92.95 55.8051 111.475 59.0877C130 62.3704 148.525 55.8051 167.05 49.2398C185.575 42.6745 204.425 36.1092 222.95 41.0332C241.475 45.9571 260 62.3704 278.525 70.577C297.05 78.7837 315.575 78.7837 334.425 77.1423C352.95 75.501 371.475 72.2184 380.575 70.577L390 68.9357V0H380.575C371.475 0 352.95 0 334.425 0C315.575 0 297.05 0 278.525 0C260 0 241.475 0 222.95 0C204.425 0 185.575 0 167.05 0C148.525 0 130 0 111.475 0C92.95 0 74.425 0 55.575 0C37.05 0 18.525 0 9.425 0H0V19.6959Z" fill="#9830EA"/>
</svg>
