<svg width="48" height="49" viewBox="0 0 48 49" fill="none" xmlns="http://www.w3.org/2000/svg">
<g clip-path="url(#clip0_66_83)">
<path d="M40.9694 7.53056C36.6266 3.18768 30.627 0.5 24 0.5C10.746 0.5 0 11.246 0 24.5C0 37.754 10.746 48.5 24 48.5C37.254 48.5 48 37.754 48 24.5C48 17.873 45.3123 11.8734 40.9694 7.53056ZM36.0994 10.9837L40.4246 15.3089L24.1906 31.543L24.1885 31.5408L24.1864 31.543L12.8203 20.1768L13.2947 19.7025L16.6567 16.3405L17.1456 15.8517L24.1885 22.8946L36.0994 10.9837Z" fill="#9830EAb8"/>
</g>
<defs>
<clipPath id="clip0_66_83">
<rect width="48" height="48" fill="white" transform="translate(0 0.5)"/>
</clipPath>
</defs>
</svg>
