<svg width="48" height="49" viewBox="0 0 48 49" fill="none" xmlns="http://www.w3.org/2000/svg">
<g clip-path="url(#clip0_66_95)">
<path d="M24 0.5C10.7452 0.5 0 11.2452 0 24.5C0 37.7548 10.7452 48.5 24 48.5C37.2548 48.5 48 37.7548 48 24.5C48 11.2452 37.2548 0.5 24 0.5ZM23.8272 11.4863C27.0682 11.5018 30.0307 13.5686 31.2891 16.4522C31.7196 17.4565 31.9482 18.4883 31.9482 19.6074V22.461H35.8799V37.5137H12.1201V22.4609H15.7354C15.7026 20.4447 15.6611 18.1381 16.3682 16.4521C17.743 13.4157 20.5861 11.4709 23.8272 11.4863ZM23.6514 16.2793C21.8561 16.317 20.6722 17.6822 20.499 19.6074V22.4609H27.1846V19.5781C27.1021 17.7525 25.7204 16.3296 23.8271 16.2793C23.7685 16.2779 23.7099 16.2779 23.6514 16.2793Z" fill="#9830EAb8"/>
</g>
<defs>
<clipPath id="clip0_66_95">
<rect width="48" height="48" fill="white" transform="translate(0 0.5)"/>
</clipPath>
</defs>
</svg>
