<svg width="48" height="49" viewBox="0 0 48 49" fill="none" xmlns="http://www.w3.org/2000/svg">
<g clip-path="url(#clip0_66_89)">
<path d="M24 0.5C10.7452 0.5 0 11.2452 0 24.5C0 37.7548 10.7452 48.5 24 48.5C37.2548 48.5 48 37.7548 48 24.5C48 11.2452 37.2548 0.5 24 0.5ZM25.6465 10.9004C32.0678 10.9004 37.2715 16.107 37.2715 22.5283C37.2715 28.9496 32.0678 34.1533 25.6465 34.1533C23.7032 34.1533 21.8718 33.6779 20.2617 32.835C20.2634 32.8424 20.266 32.851 20.2676 32.8584L15.0234 38.0996L10.7285 33.8018L15.7852 28.7422C15.7935 28.7384 15.8032 28.737 15.8115 28.7334C14.676 26.9377 14.0186 24.8099 14.0186 22.5283C14.0186 16.107 19.2252 10.9004 25.6465 10.9004ZM25.6465 16.0654C22.078 16.0654 19.1836 18.9598 19.1836 22.5283C19.1836 26.0968 22.078 28.9883 25.6465 28.9883C29.215 28.9883 32.1064 26.0968 32.1064 22.5283C32.1064 18.9598 29.215 16.0654 25.6465 16.0654Z" fill="#6E4AACb8"/>
</g>
<defs>
<clipPath id="clip0_66_89">
<rect width="48" height="48" fill="white" transform="translate(0 0.5)"/>
</clipPath>
</defs>
</svg>
